<svg xmlns="http://www.w3.org/2000/svg" xmlns:xlink="http://www.w3.org/1999/xlink" viewBox="0 0 48 48" version="1.1">
<g id="surface1">
<path style=" fill:#FFA726;" d="M 10 28.5 C 10 30.433594 8.433594 32 6.5 32 C 4.566406 32 3 30.433594 3 28.5 C 3 26.566406 4.566406 25 6.5 25 C 8.433594 25 10 26.566406 10 28.5 M 35 28.5 C 35 26.566406 33.433594 25 31.5 25 C 29.566406 25 28 26.566406 28 28.5 C 28 30.433594 29.566406 32 31.5 32 C 33.433594 32 35 30.433594 35 28.5 "></path>
<path style=" fill:#FFB74D;" d="M 6 21.777344 C 6 10.46875 32 14.414063 32 21.777344 L 32 30.664063 C 32 38.03125 26.179688 44 19 44 C 11.820313 44 6 38.03125 6 30.667969 Z "></path>
<path style=" fill:#424242;" d="M 33.902344 21.523438 C 33.484375 16.214844 31.46875 10.316406 25 9 L 24 7 L 19 7 C 10.855469 7 4 13.648438 4 23 L 4 26.023438 L 7 29 L 7 24 L 25 18 L 31 23 L 31 29 L 34 26.023438 L 34 23 C 34 22.496094 33.960938 22.007813 33.902344 21.523438 "></path>
<path style=" fill:#784719;" d="M 26 28.5 C 26 29.328125 25.328125 30 24.5 30 C 23.671875 30 23 29.328125 23 28.5 C 23 27.671875 23.671875 27 24.5 27 C 25.328125 27 26 27.671875 26 28.5 M 15 28.5 C 15 27.671875 14.328125 27 13.5 27 C 12.671875 27 12 27.671875 12 28.5 C 12 29.328125 12.671875 30 13.5 30 C 14.328125 30 15 29.328125 15 28.5 "></path>
<path style=" fill:#BBDEFB;" d="M 42 8.570313 C 42 6.046875 39.984375 4 37.5 4 C 35.015625 4 33 6.046875 33 8.570313 C 33 11.097656 35.015625 13.144531 37.5 13.144531 C 39.984375 13.144531 42 11.097656 42 8.570313 Z "></path>
<path style=" fill:#BBDEFB;" d="M 41 15.996094 C 41 18.207031 39.210938 19.996094 37 19.996094 C 34.789063 19.996094 33 18.207031 33 15.996094 C 33 13.789063 34.789063 11.996094 37 11.996094 C 39.210938 11.996094 41 13.789063 41 15.996094 Z "></path>
<path style=" fill:#BBDEFB;" d="M 45 13 C 45 15.210938 43.210938 17 41 17 C 38.789063 17 37 15.210938 37 13 C 37 10.789063 38.789063 9 41 9 C 43.210938 9 45 10.789063 45 13 Z "></path>
<path style=" fill:#BBDEFB;" d="M 31 12.5 C 31 14.433594 29.433594 16 27.5 16 C 25.566406 16 24 14.433594 24 12.5 C 24 10.566406 25.566406 9 27.5 9 C 29.433594 9 31 10.566406 31 12.5 Z "></path>
<path style=" fill:#BBDEFB;" d="M 34.5 15.199219 C 34.5 13.433594 33.089844 12 31.351563 12 C 29.609375 12 28.199219 13.433594 28.199219 15.199219 C 28.199219 16.96875 29.609375 18.398438 31.351563 18.398438 C 33.089844 18.398438 34.5 16.96875 34.5 15.199219 Z "></path>
<path style=" fill:#BBDEFB;" d="M 35 8.5 C 35 10.433594 33.433594 12 31.5 12 C 29.566406 12 28 10.433594 28 8.5 C 28 6.566406 29.566406 5 31.5 5 C 33.433594 5 35 6.566406 35 8.5 Z "></path>
<path style=" fill:#BBDEFB;" d="M 38.699219 12 C 38.699219 9.9375 37.054688 8.265625 35.023438 8.265625 C 32.996094 8.265625 31.351563 9.9375 31.351563 12 C 31.351563 14.0625 32.996094 15.734375 35.023438 15.734375 C 37.054688 15.734375 38.699219 14.0625 38.699219 12 Z "></path>
<path style=" fill:#1565C0;" d="M 32 11.925781 C 32 12.480469 31.550781 12.925781 31 12.925781 C 30.449219 12.925781 30 12.480469 30 11.925781 C 30 11.371094 30.449219 10.925781 31 10.925781 C 31.550781 10.925781 32 11.371094 32 11.925781 Z M 35 10.925781 C 34.449219 10.925781 34 11.371094 34 11.925781 C 34 12.480469 34.449219 12.925781 35 12.925781 C 35.550781 12.925781 36 12.480469 36 11.925781 C 36 11.371094 35.550781 10.925781 35 10.925781 Z M 39 10.925781 C 38.449219 10.925781 38 11.371094 38 11.925781 C 38 12.480469 38.449219 12.925781 39 12.925781 C 39.550781 12.925781 40 12.480469 40 11.925781 C 40 11.371094 39.550781 10.925781 39 10.925781 Z "></path>
</g>
</svg>